<svg xmlns="http://www.w3.org/2000/svg" viewBox="0 0 512 512">
  <rect width="512" height="512" rx="116" fill="#0d766c"/>
  <path fill="#fff" d="M126 116c0-31 25-56 56-56h148c31 0 56 25 56 56v232c0 25-17 46-40 53v27c0 13-11 24-24 24h-12c-13 0-24-11-24-24v-23h-60v23c0 13-11 24-24 24h-12c-13 0-24-11-24-24v-27c-23-7-40-28-40-53V116zm58 12v112h144V128H184zm18 170a26 26 0 1 0 0 52 26 26 0 0 0 0-52zm108 0a26 26 0 1 0 0 52 26 26 0 0 0 0-52z"/>
  <rect x="196" y="91" width="120" height="22" rx="11" fill="#ff8a3d"/>
</svg>
